HIERARCHY
ROOT joint_Root
{
	OFFSET 0.0 0.0 0.0
	CHANNELS 6 Xposition Yposition Zposition Zrotation Xrotation Yrotation 
	JOINT Hips
	{
		OFFSET 4.5925 91.4895 -427.239
		CHANNELS 6 Xposition Yposition Zposition Zrotation Xrotation Yrotation 
		JOINT Spine
		{
			OFFSET 15.7357 0.0 0.0
			CHANNELS 6 Xposition Yposition Zposition Zrotation Xrotation Yrotation 
			JOINT Chest
			{
				OFFSET 8.98455 -0.406207 0.0
				CHANNELS 6 Xposition Yposition Zposition Zrotation Xrotation Yrotation 
				JOINT Neck
				{
					OFFSET 16.3773 0.0 0.0
					CHANNELS 6 Xposition Yposition Zposition Zrotation Xrotation Yrotation 
					JOINT Head
					{
						OFFSET 6.45672 0.0 0.0
						CHANNELS 6 Xposition Yposition Zposition Zrotation Xrotation Yrotation 
						End Site
						{
							OFFSET 0.0 0.0 0.0
						}
					}
				}
				JOINT Shoulder_L
				{
					OFFSET 12.9942 -0.242716 4.98039
					CHANNELS 6 Xposition Yposition Zposition Zrotation Xrotation Yrotation 
					JOINT UpperArm_L
					{
						OFFSET 5.34809 0.0 0.0
						CHANNELS 6 Xposition Yposition Zposition Zrotation Xrotation Yrotation 
						JOINT LowerArm_L
						{
							OFFSET 24.3286 1.87007e-05 0.0
							CHANNELS 6 Xposition Yposition Zposition Zrotation Xrotation Yrotation 
							JOINT Hand_L
							{
								OFFSET 22.2916 0.0 0.0
								CHANNELS 6 Xposition Yposition Zposition Zrotation Xrotation Yrotation 
								End Site
								{
									OFFSET 0.0 0.0 0.0
								}
							}
						}
					}
				}
				JOINT Shoulder_R
				{
					OFFSET 12.9945 -0.242716 -4.98039
					CHANNELS 6 Xposition Yposition Zposition Zrotation Xrotation Yrotation 
					JOINT UpperArm_R
					{
						OFFSET -5.34813 0.0 0.0
						CHANNELS 6 Xposition Yposition Zposition Zrotation Xrotation Yrotation 
						JOINT LowerArm_R
						{
							OFFSET -24.3289 0.000322201 0.0
							CHANNELS 6 Xposition Yposition Zposition Zrotation Xrotation Yrotation 
							JOINT Hand_R
							{
								OFFSET -22.2915 -0.000108084 0.0
								CHANNELS 6 Xposition Yposition Zposition Zrotation Xrotation Yrotation 
								End Site
								{
									OFFSET 0.0 0.0 0.0
								}
							}
						}
					}
				}
			}
		}
		JOINT UpperLeg_L
		{
			OFFSET -2.19248 -6.46944 0.0
			CHANNELS 6 Xposition Yposition Zposition Zrotation Xrotation Yrotation 
			JOINT LowerLeg_L
			{
				OFFSET 39.0811 0.0 -1.23785e-05
				CHANNELS 6 Xposition Yposition Zposition Zrotation Xrotation Yrotation 
				JOINT Foot_L
				{
					OFFSET 40.9854 0.0 -1.26872e-05
					CHANNELS 6 Xposition Yposition Zposition Zrotation Xrotation Yrotation 
					JOINT Toes_L
					{
						OFFSET 11.7543 0.0 0.0
						CHANNELS 6 Xposition Yposition Zposition Zrotation Xrotation Yrotation 
						End Site
						{
							OFFSET 0.0 0.0 0.0
						}
					}
				}
			}
		}
		JOINT UpperLeg_R
		{
			OFFSET -2.19251 6.46944 0.0
			CHANNELS 6 Xposition Yposition Zposition Zrotation Xrotation Yrotation 
			JOINT LowerLeg_R
			{
				OFFSET -39.0811 -0.00228153 -0.0401928
				CHANNELS 6 Xposition Yposition Zposition Zrotation Xrotation Yrotation 
				JOINT Foot_R
				{
					OFFSET -40.9854 0.0 0.0
					CHANNELS 6 Xposition Yposition Zposition Zrotation Xrotation Yrotation 
					JOINT Toes_R
					{
						OFFSET -11.7543 0.0 0.0
						CHANNELS 6 Xposition Yposition Zposition Zrotation Xrotation Yrotation 
						End Site
						{
							OFFSET 0.0 0.0 0.0
						}
					}
				}
			}
		}
	}
}
MOTION
Frames:	8
Frame Time:	0.0333333
0.000000 0.000000 0.000000 0.000000 0.000000 -0.000000 134.144000 89.278200 -138.351000 91.349600 -4.038880 -1.670720 15.735700 0.000005 -0.000001 120.424000 83.407400 -120.802000 8.984550 -0.406207 -0.000000 3.646700 6.681890 -0.969663 16.377300 -0.000001 -0.000001 -1.937980 -3.463550 2.317750 6.456720 -0.000001 -0.000000 -7.880410 -7.325990 1.189080 12.994200 -0.242716 4.980390 -87.526100 -6.786270 -69.916500 5.348090 -0.000007 -0.000001 -80.980400 56.752900 41.771700 24.328600 0.000019 0.000005 11.490600 7.605050 -56.934400 22.291600 -0.000001 0.000005 0.557524 5.586350 -10.557500 12.994500 -0.242716 -4.980390 90.080900 -0.619799 -82.565300 -5.348130 -0.000001 -0.000004 -51.689000 26.133400 -68.004300 -24.328900 0.000322 -0.000009 -1.354800 0.788952 -120.210000 -22.291500 -0.000108 -0.000004 19.368400 5.574080 -9.898700 -2.192480 -6.469440 -0.000000 178.161000 -2.581060 -25.918500 39.081100 -0.000007 -0.000012 -0.021624 0.004856 77.361200 40.985400 -0.000006 -0.000013 8.875930 -9.717350 -51.619900 11.754300 -0.000000 0.000003 -0.008175 -0.089467 -20.220100 -2.192510 6.469440 -0.000001 176.607000 11.101300 175.653000 -39.081100 -0.002282 -0.040193 0.018890 -0.021561 35.889000 -40.985400 0.000008 0.000006 4.155740 2.371160 -77.138500 -11.754300 -0.000006 -0.000006 -0.009396 -0.099069 -20.608800
0.000000 0.000000 0.000000 0.000000 0.000000 -0.000000 134.588000 90.769800 -134.491000 92.188500 -3.900740 -3.539810 15.735700 0.000005 -0.000001 126.678000 83.595100 -127.856000 8.984550 -0.406207 -0.000000 2.609410 7.698190 -2.532560 16.377300 -0.000001 -0.000001 -2.468130 -4.137190 2.204390 6.456720 -0.000001 -0.000000 -8.488280 -8.686750 1.424070 12.994200 -0.242716 4.980390 -86.151700 -10.385300 -69.536900 5.348090 -0.000007 -0.000001 -81.118300 52.632100 45.336000 24.328600 0.000019 0.000005 11.054900 6.112330 -61.410000 22.291600 -0.000001 0.000005 0.551250 5.581600 -10.298200 12.994500 -0.242716 -4.980390 90.435600 -3.168720 -82.169100 -5.348130 -0.000001 -0.000004 -53.605000 23.174400 -68.544400 -24.328900 0.000322 -0.000009 -2.128630 1.346720 -122.308000 -22.291500 -0.000108 -0.000004 19.076700 5.557090 -9.045240 -2.192480 -6.469440 -0.000000 176.610000 0.394125 -30.498300 39.081100 -0.000007 -0.000012 -0.024224 0.007893 71.966200 40.985400 -0.000006 -0.000013 7.978500 -9.737360 -56.073300 11.754300 -0.000000 0.000003 -0.007248 -0.081785 -19.906500 -2.192510 6.469440 -0.000001 174.249000 14.128300 178.299000 -39.081100 -0.002282 -0.040193 0.008692 -0.008953 31.060100 -40.985400 0.000008 0.000006 4.187840 6.424430 -71.352100 -11.754300 -0.000006 -0.000006 -0.028316 -0.209639 -25.157600
0.000000 0.000000 0.000000 0.000000 0.000000 -0.000000 134.867000 91.799000 -130.684000 92.404600 -3.760110 -5.123420 15.735700 0.000005 -0.000001 130.982000 83.740500 -132.710000 8.984550 -0.406207 -0.000000 1.831900 8.295010 -3.588620 16.377300 -0.000001 -0.000001 -2.838360 -4.513510 2.034740 6.456720 -0.000001 -0.000000 -9.017320 -9.529250 1.565600 12.994200 -0.242716 4.980390 -84.964800 -13.534100 -69.369100 5.348090 -0.000007 -0.000001 -80.632100 47.788400 45.889100 24.328600 0.000019 0.000005 12.105200 5.739470 -65.001200 22.291600 -0.000001 0.000005 0.920490 5.570170 -9.696760 12.994500 -0.242716 -4.980390 90.599000 -4.246780 -81.963600 -5.348130 -0.000001 -0.000004 -54.032400 22.298200 -67.378400 -24.328900 0.000322 -0.000009 -2.320170 1.495060 -122.782000 -22.291500 -0.000108 -0.000004 19.186700 5.546330 -8.533910 -2.192480 -6.469440 -0.000000 176.567000 2.073670 -33.484500 39.081100 -0.000007 -0.000012 -0.000702 0.000355 63.524400 40.985400 -0.000006 -0.000013 6.135640 -8.360890 -59.912200 11.754300 -0.000000 0.000003 -0.007075 -0.080312 -19.846300 -2.192510 6.469440 -0.000001 172.555000 17.088400 -179.228000 -39.081100 -0.002282 -0.040193 0.009338 -0.011759 27.149000 -40.985400 0.000008 0.000006 4.516620 10.618900 -65.971100 -11.754300 -0.000006 -0.000006 -0.051619 -0.303488 -29.078500
0.000000 0.000000 0.000000 0.000000 0.000000 -0.000000 135.042000 91.951200 -126.990000 92.075900 -3.332770 -6.585530 15.735700 0.000005 -0.000001 133.129000 84.003000 -135.154000 8.984550 -0.406207 -0.000000 1.152500 8.312980 -4.134920 16.377300 -0.000001 -0.000001 -3.343120 -4.718140 1.864250 6.456720 -0.000001 -0.000000 -9.289820 -9.849650 1.541170 12.994200 -0.242716 4.980390 -84.478200 -14.879600 -69.370100 5.348090 -0.000007 -0.000001 -78.879000 42.881600 44.656100 24.328600 0.000019 0.000005 13.210900 5.299230 -68.523900 22.291600 -0.000001 0.000005 1.169190 5.558490 -9.113360 12.994500 -0.242716 -4.980390 90.578300 -4.158160 -82.074800 -5.348130 -0.000001 -0.000004 -53.660600 24.065000 -64.612300 -24.328900 0.000322 -0.000009 -2.966580 1.825260 -121.577000 -22.291500 -0.000108 -0.000004 19.208600 5.545820 -8.510610 -2.192480 -6.469440 -0.000000 177.159000 1.939290 -35.730200 39.081100 -0.000007 -0.000012 0.019547 -0.014499 53.426700 40.985400 -0.000006 -0.000013 4.787930 -6.060420 -63.120100 11.754300 -0.000000 0.000003 -0.007435 -0.083368 -19.971100 -2.192510 6.469440 -0.000001 171.393000 20.037000 -177.701000 -39.081100 -0.002282 -0.040193 0.013917 -0.021933 25.807300 -40.985400 0.000008 0.000006 4.946390 14.726800 -62.585000 -11.754300 -0.000006 -0.000006 -0.076572 -0.382244 -32.428200
0.000000 0.000000 0.000000 0.000000 0.000000 -0.000000 135.228000 91.290000 -123.217000 91.295100 -3.235930 -7.106370 15.735700 0.000005 -0.000001 132.768000 83.950000 -134.847000 8.984550 -0.406207 -0.000000 1.287430 8.330110 -4.255060 16.377300 -0.000001 -0.000001 -4.360400 -4.767950 1.540850 6.456720 -0.000001 -0.000000 -9.383330 -9.935670 1.584950 12.994200 -0.242716 4.980390 -84.889000 -14.007200 -69.719300 5.348090 -0.000007 -0.000001 -76.047700 37.865900 41.481100 24.328600 0.000019 0.000005 12.797600 4.510090 -70.905200 22.291600 -0.000001 0.000005 1.950760 5.545150 -8.479540 12.994500 -0.242716 -4.980390 90.429800 -3.285360 -82.542500 -5.348130 -0.000001 -0.000004 -53.455800 27.790500 -60.095700 -24.328900 0.000322 -0.000009 -3.147360 1.743750 -118.961000 -22.291500 -0.000108 -0.000004 19.421500 5.543500 -8.402980 -2.192480 -6.469440 -0.000000 177.535000 -0.911518 -36.688900 39.081100 -0.000007 -0.000012 0.010145 -0.010686 43.503000 40.985400 -0.000006 -0.000013 0.497804 -2.918670 -65.165000 11.754300 -0.000000 0.000003 -0.007268 -0.081959 -19.913500 -2.192510 6.469440 -0.000001 170.502000 20.887600 -176.251000 -39.081100 -0.002282 -0.040193 0.020547 -0.034153 26.781700 -40.985400 0.000008 0.000006 4.945250 17.562200 -60.747500 -11.754300 -0.000006 -0.000006 -0.114108 -0.478289 -36.609700
0.000000 0.000000 0.000000 0.000000 0.000000 -0.000000 135.525000 89.912300 -119.193000 90.323800 -4.005350 -6.485530 15.735700 0.000005 -0.000001 129.954000 83.407000 -131.918000 8.984550 -0.406207 -0.000000 2.517660 8.550820 -4.119140 16.377300 -0.000001 -0.000001 -5.476610 -4.341790 1.010390 6.456720 -0.000001 -0.000000 -10.002300 -9.643000 1.520650 12.994200 -0.242716 4.980390 -86.058800 -11.128000 -70.354900 5.348090 -0.000007 -0.000001 -72.898500 31.922600 36.015600 24.328600 0.000019 0.000005 14.388200 4.917980 -71.521400 22.291600 -0.000001 0.000005 4.234930 5.549670 -8.689540 12.994500 -0.242716 -4.980390 90.188300 -1.787190 -83.985500 -5.348130 -0.000001 -0.000004 -54.658400 32.063000 -52.936600 -24.328900 0.000322 -0.000009 -3.027460 1.407090 -114.905000 -22.291500 -0.000108 -0.000004 19.990800 5.549680 -8.690930 -2.192480 -6.469440 -0.000000 176.916000 -5.509400 -37.073300 39.081100 -0.000007 -0.000012 0.004906 -0.006309 37.861300 40.985400 -0.000006 -0.000013 -0.526255 -2.853590 -66.906200 11.754300 -0.000000 0.000003 -0.007360 -0.082738 -19.945400 -2.192510 6.469440 -0.000001 170.366000 17.475600 -174.829000 -39.081100 -0.002282 -0.040193 0.033901 -0.053608 29.717200 -40.985400 0.000008 0.000006 4.931050 16.913300 -60.078900 -11.754300 -0.000006 -0.000006 -0.174130 -0.600299 -42.124600
0.000000 0.000000 0.000000 0.000000 0.000000 -0.000000 136.055000 88.099500 -114.659000 89.817800 -5.326750 -5.868210 15.735700 0.000005 -0.000001 127.393000 83.043300 -129.285000 8.984550 -0.406207 -0.000000 3.464430 8.510490 -4.043460 16.377300 -0.000001 -0.000001 -5.937640 -3.332240 0.436104 6.456720 -0.000001 -0.000000 -10.415700 -8.976510 1.271540 12.994200 -0.242716 4.980390 -87.936300 -6.073100 -71.191600 5.348090 -0.000007 -0.000001 -69.823600 25.294900 29.576300 24.328600 0.000019 0.000005 14.829700 5.471540 -70.194400 22.291600 -0.000001 0.000005 5.761900 5.553320 -8.863470 12.994500 -0.242716 -4.980390 89.877000 1.602630 -85.605900 -5.348130 -0.000001 -0.000004 -56.341800 36.247500 -43.176900 -24.328900 0.000322 -0.000009 -4.315150 1.393550 -107.869000 -22.291500 -0.000108 -0.000004 22.630600 5.571050 -9.737390 -2.192480 -6.469440 -0.000000 174.405000 -11.261900 -38.599000 39.081100 -0.000007 -0.000012 0.182430 -0.228893 38.555000 40.985400 -0.000006 -0.000013 3.534890 -7.609730 -66.599800 11.754300 -0.000000 0.000003 -0.009635 -0.100896 -20.687200 -2.192510 6.469440 -0.000001 170.231000 13.079400 -173.963000 -39.081100 -0.002282 -0.040193 0.059740 -0.084231 33.827700 -40.985400 0.000008 0.000006 5.452630 14.834100 -59.402400 -11.754300 -0.000006 -0.000006 -0.277190 -0.760145 -49.841500
0.000000 0.000000 0.000000 0.000000 0.000000 -0.000000 136.752000 86.169600 -109.245000 89.625900 -6.503040 -5.271510 15.735700 0.000005 -0.000001 124.419000 83.401400 -126.370000 8.984550 -0.406207 -0.000000 3.276550 7.527970 -4.117460 16.377300 -0.000001 -0.000001 -5.189930 -2.063780 0.686947 6.456720 -0.000001 -0.000000 -9.278010 -7.544810 1.129810 12.994200 -0.242716 4.980390 -90.347100 1.001070 -70.887600 5.348090 -0.000007 -0.000001 -65.821000 20.009100 22.552600 24.328600 0.000019 0.000005 14.617500 5.772490 -68.911100 22.291600 -0.000001 0.000005 6.523820 5.553400 -8.867530 12.994500 -0.242716 -4.980390 89.576600 7.124490 -86.590000 -5.348130 -0.000001 -0.000004 -58.814500 39.286400 -30.292400 -24.328900 0.000322 -0.000009 -7.005750 0.728220 -95.909100 -22.291500 -0.000108 -0.000004 24.025200 5.597100 -11.171800 -2.192480 -6.469440 -0.000000 173.798000 -15.598600 -40.347300 39.081100 -0.000007 -0.000012 -0.233103 0.218820 46.810900 40.985400 -0.000006 -0.000013 4.350370 -6.852410 -63.613200 11.754300 -0.000000 0.000003 -0.000354 -0.005758 -16.811300 -2.192510 6.469440 -0.000001 168.922000 11.628700 -173.933000 -39.081100 -0.002282 -0.040193 0.119253 -0.139444 39.749900 -40.985400 0.000008 0.000006 6.804490 14.510100 -55.677800 -11.754300 -0.000006 -0.000006 -0.443354 -0.946395 -59.975100
